<svg width="16" height="19" viewBox="0 0 16 19" fill="none" xmlns="http://www.w3.org/2000/svg">
<path d="M12.7407 0H3.25926C1.46222 0 0 1.46222 0 3.25926V12.7407C0 14.5378 1.46222 16 3.25926 16H5.88667L7.49185 18.6752C7.721 19.0574 8.27763 19.0597 8.50815 18.6752L10.1133 16H12.7407C14.5378 16 16 14.5378 16 12.7407V3.25926C16 1.46222 14.5378 0 12.7407 0ZM12.997 11.2496L11.74 12.5067C11.3874 12.8593 10.9026 13.0367 10.3196 13.0367C6.63119 13.0367 1.05978 6.42615 3.35963 4.1263L4.61667 2.86926C4.84744 2.63774 5.22396 2.63763 5.45481 2.86926L7.75926 5.1737C7.99074 5.40519 7.99074 5.78037 7.75926 6.01185L6.65074 7.12074C6.93411 7.79756 8.06463 8.9293 8.74556 9.21556L9.85444 8.10704C10.0866 7.87489 10.4617 7.87615 10.6926 8.10704L12.997 10.4115C13.2285 10.643 13.2285 11.0181 12.997 11.2496Z" fill="#7C788A"/>
<path d="M9.43554 10.202C8.73298 10.9046 7.41395 9.85636 6.71183 9.15425C6.01017 8.45254 4.96128 7.13254 5.66443 6.43054L6.50221 5.59239L5.03554 4.1261L4.19776 4.96388C3.93739 5.22425 3.95776 5.8598 4.25109 6.62202C5.00754 8.5888 7.26476 10.8537 9.24406 11.615C10.0063 11.9083 10.6418 11.9287 10.9022 11.6683L11.74 10.8305L10.2733 9.36388L9.43554 10.202Z" fill="#7C788A"/>
</svg>
