<svg width="16" height="14" viewBox="0 0 16 14" fill="none" xmlns="http://www.w3.org/2000/svg">
<path d="M15.9556 12.7082C15.9549 12.7061 15.9543 12.7041 15.9536 12.702L15.318 10.771V6.04245C15.318 5.26709 14.6872 4.63629 13.9119 4.63629H9.80711V6.93707C9.80711 8.22933 8.75577 9.28066 7.46352 9.28066H7.1311V11.5421C7.1311 12.3174 7.7619 12.9482 8.53726 12.9482H13.3077L14.5356 13.7653C14.697 13.8745 14.8795 13.929 15.0617 13.929C15.257 13.929 15.4519 13.8664 15.6198 13.7418C15.945 13.5005 16.0768 13.0948 15.9556 12.7082ZM12.765 11.0431C12.5229 11.1345 12.2524 11.0122 12.161 10.77L11.9569 10.2292H10.5301L10.3236 10.7714C10.2524 10.9584 10.0743 11.0734 9.88545 11.0734C9.82998 11.0734 9.77361 11.0635 9.71871 11.0426C9.47679 10.9504 9.35539 10.6796 9.44751 10.4377L10.7383 7.04863C10.7396 7.04507 10.741 7.0415 10.7425 7.03797C10.8268 6.83186 11.0251 6.69853 11.2479 6.69831C11.4718 6.69715 11.6692 6.83102 11.7539 7.037C11.7557 7.04125 11.7573 7.0455 11.7589 7.04981L13.038 10.439C13.1294 10.6812 13.0072 10.9517 12.765 11.0431Z" fill="#7C788A"/>
<path d="M10.8866 9.29149H11.6026L11.2462 8.34717L10.8866 9.29149Z" fill="#7C788A"/>
<path d="M7.46267 0H2.08803C1.31268 0 0.68188 0.630801 0.68188 1.40615V6.16611L0.0463612 8.09723C0.0456737 8.09932 0.0450175 8.10145 0.0443613 8.10354C-0.0767867 8.48995 0.0550793 8.89555 0.380307 9.13685C0.548202 9.2614 0.743064 9.32396 0.938332 9.32396C1.12044 9.32396 1.3029 9.26959 1.4642 9.16038L2.69218 8.34321H7.46264C8.23799 8.34321 8.86879 7.71241 8.86879 6.93706V1.40619C8.86882 0.630801 8.23802 0 7.46267 0ZM6.73166 6.25392C6.64013 6.34541 6.52017 6.39119 6.40024 6.39119C6.28028 6.39119 6.16035 6.34544 6.06883 6.25389L5.86359 6.04862C5.51996 6.27363 5.10977 6.40503 4.66923 6.40503C3.4636 6.40503 2.48273 5.42416 2.48273 4.21853C2.48273 3.01289 3.4636 2.03202 4.66923 2.03202C5.87487 2.03202 6.85574 3.01289 6.85574 4.21853C6.85574 4.64503 6.73256 5.04306 6.52054 5.37982L6.73172 5.59099C6.91471 5.77411 6.91471 6.07087 6.73166 6.25392Z" fill="#7C788A"/>
<path d="M4.67009 2.96954C3.98136 2.96954 3.42102 3.52988 3.42102 4.21861C3.42102 4.90735 3.98136 5.46769 4.67009 5.46769C4.85011 5.46769 5.02122 5.42909 5.17599 5.36022L4.97063 5.15486C4.78758 4.97181 4.78758 4.67505 4.97063 4.492C5.15368 4.30895 5.45044 4.30895 5.63349 4.492L5.82792 4.68643C5.88657 4.54184 5.91916 4.38398 5.91916 4.21861C5.91916 3.52985 5.35883 2.96954 4.67009 2.96954Z" fill="#7C788A"/>
</svg>
