<svg width="16" height="13" viewBox="0 0 16 13" fill="none" xmlns="http://www.w3.org/2000/svg">
<path d="M2.44746 0C2.44703 0 2.44654 0 2.44611 0C2.29478 0 2.15245 0.0627357 2.04498 0.176749C1.93632 0.292022 1.87646 0.44551 1.87646 0.608909V9.7394C1.87646 10.0742 2.1336 10.3473 2.44972 10.3481C3.78241 10.3515 6.0152 10.6469 7.55551 12.3612V2.80587C7.55551 2.69237 7.52825 2.58575 7.47681 2.49751C6.21259 0.332299 3.78316 0.00332299 2.44746 0Z" fill="#7C788A"/>
<path d="M14.1235 9.73946V0.608909C14.1235 0.44551 14.0636 0.292022 13.9549 0.176749C13.8475 0.0627357 13.705 0 13.5539 0C13.5534 0 13.5529 0 13.5525 0C12.2168 0.00338028 9.78738 0.332356 8.52311 2.49757C8.47166 2.5858 8.44446 2.69243 8.44446 2.80592V12.3612C9.98477 10.6469 12.2176 10.3515 13.5503 10.3481C13.8663 10.3473 14.1235 10.0742 14.1235 9.73946Z" fill="#7C788A"/>
<path d="M15.4275 2.10571H15.0123V9.73948C15.0123 10.5944 14.3574 11.2914 13.5523 11.2936C12.4219 11.2964 10.5581 11.5315 9.23804 12.8602C11.521 12.2657 13.9277 12.6521 15.2993 12.9846C15.4706 13.026 15.6475 12.9832 15.7848 12.8669C15.9215 12.7509 15.9999 12.5774 15.9999 12.3913V2.71451C16 2.37883 15.7431 2.10571 15.4275 2.10571Z" fill="#7C788A"/>
<path d="M0.987586 9.73948V2.10571H0.572446C0.256863 2.10571 0 2.37883 0 2.71451V12.3911C0 12.5773 0.078438 12.7507 0.215166 12.8667C0.352271 12.983 0.529079 13.026 0.700608 12.9844C2.0722 12.6519 4.47894 12.2655 6.76183 12.86C5.44185 11.5314 3.57798 11.2964 2.44758 11.2935C1.64256 11.2914 0.987586 10.5944 0.987586 9.73948Z" fill="#7C788A"/>
</svg>
