<svg width="16" height="16" viewBox="0 0 16 16" fill="none" xmlns="http://www.w3.org/2000/svg">
<path d="M7.40438 7.40079L0.216875 4.32919C0.113906 4.28517 0 4.36192 0 4.47534V12.687C0 12.8945 0.124469 13.0811 0.314313 13.1582L7.28572 15.9885C7.38834 16.0301 7.5 15.9534 7.5 15.8412V7.54694C7.5 7.48313 7.46231 7.42556 7.40438 7.40079Z" fill="#7C788A"/>
<path d="M8.06058 6.52818L15.0079 3.55922C15.1328 3.50587 15.1361 3.32749 15.0134 3.26935L8.21139 0.0476002C8.07736 -0.0158667 7.92254 -0.0158667 7.78851 0.0476002L0.986544 3.26935C0.863763 3.32749 0.867106 3.50587 0.991981 3.55922L7.93933 6.52818C7.97808 6.54476 8.02183 6.54476 8.06058 6.52818Z" fill="#7C788A"/>
<path d="M8.5 7.54694V15.8412C8.5 15.9534 8.61166 16.0301 8.71428 15.9885L15.6857 13.1582C15.8755 13.0811 16 12.8945 16 12.687V4.47534C16 4.36192 15.8861 4.28517 15.7831 4.32919L8.59562 7.40079C8.53769 7.42556 8.5 7.48313 8.5 7.54694Z" fill="#7C788A"/>
</svg>
