<svg width="16" height="16" viewBox="0 0 16 16" fill="none" xmlns="http://www.w3.org/2000/svg">
<path d="M2.84884 11.5386V0H2.0804C0.948281 0 0.0272217 0.921059 0.0272217 2.05318V12.1906C0.497564 11.7848 1.10922 11.5386 1.77768 11.5386H2.84884V11.5386Z" fill="#7C788A"/>
<path d="M12.4364 7.96716C12.5373 7.96716 12.6373 7.97085 12.7366 7.97747V0H3.78418V11.5386H8.05748C8.47435 9.50303 10.2794 7.96716 12.4364 7.96716ZM6.62417 2.75533H9.75604V3.69111H6.62417V2.75533ZM5.56627 4.78689H10.8139V5.72267H5.56627V4.78689Z" fill="#7C788A"/>
<path d="M8.57828 14.6904H2.39846V13.7547H8.1655C8.03741 13.3404 7.96807 12.9006 7.96725 12.445H1.77756C0.797404 12.445 0 13.2424 0 14.2225C0 15.2027 0.797404 16.0001 1.77756 16.0001H9.74184C9.27337 15.6449 8.87691 15.1997 8.57828 14.6904Z" fill="#7C788A"/>
<path d="M12.4368 8.87341C10.472 8.87341 8.87354 10.4719 8.87354 12.4367C8.87354 14.4015 10.472 16 12.4368 16C14.4016 16 16.0001 14.4015 16.0001 12.4367C16.0001 10.4719 14.4016 8.87341 12.4368 8.87341ZM12.4365 10.3035C12.6993 10.3035 12.8939 10.5183 12.9052 10.7722C12.9166 11.0254 12.6817 11.241 12.4365 11.241C12.1737 11.241 11.9791 11.0262 11.9677 10.7722C11.9564 10.5191 12.1913 10.3035 12.4365 10.3035ZM12.9063 14.2636H11.9688V11.8636H12.9063V14.2636Z" fill="#7C788A"/>
</svg>
