<svg width="16" height="16" viewBox="0 0 16 16" fill="none" xmlns="http://www.w3.org/2000/svg">
<path d="M1.16667 12H6.16667C6.81 12 7.33333 11.4767 7.33333 10.8333V8.16667C7.33333 7.52333 6.81 7 6.16667 7H1.16667C0.523333 7 0 7.52333 0 8.16667V10.8333C0 11.4767 0.523333 12 1.16667 12Z" fill="#7C788A"/>
<path d="M15.5 7H9.16663C8.89063 7 8.66663 7.224 8.66663 7.5C8.66663 7.776 8.89063 8 9.16663 8H15.5C15.776 8 16 7.776 16 7.5C16 7.224 15.776 7 15.5 7Z" fill="#7C788A"/>
<path d="M15.5 9H9.16663C8.89063 9 8.66663 9.224 8.66663 9.5C8.66663 9.776 8.89063 10 9.16663 10H15.5C15.776 10 16 9.776 16 9.5C16 9.224 15.776 9 15.5 9Z" fill="#7C788A"/>
<path d="M15.5 11H9.16663C8.89063 11 8.66663 11.224 8.66663 11.5C8.66663 11.776 8.89063 12 9.16663 12H15.5C15.776 12 16 11.776 16 11.5C16 11.224 15.776 11 15.5 11Z" fill="#7C788A"/>
<path d="M15.5 13H0.5C0.224 13 0 13.224 0 13.5C0 13.776 0.224 14 0.5 14H15.5C15.776 14 16 13.776 16 13.5C16 13.224 15.776 13 15.5 13Z" fill="#7C788A"/>
<path d="M15.5 15H0.5C0.224 15 0 15.224 0 15.5C0 15.776 0.224 16 0.5 16H15.5C15.776 16 16 15.776 16 15.5C16 15.224 15.776 15 15.5 15Z" fill="#7C788A"/>
<path d="M14.8333 0H1.16667C0.523333 0 0 0.523333 0 1.16667V4.83333C0 5.47667 0.523333 6 1.16667 6H14.8333C15.4767 6 16 5.47667 16 4.83333V1.16667C16 0.523333 15.4767 0 14.8333 0Z" fill="#7C788A"/>
</svg>
