<svg width="16" height="16" viewBox="0 0 16 16" fill="none" xmlns="http://www.w3.org/2000/svg">
<path d="M7 4.16665V1.34998C6.944 1.34531 6.89066 1.33331 6.83333 1.33331H1.16667C0.523333 1.33331 0 1.85665 0 2.49998V7.49998C0 7.68398 0.101333 7.85331 0.264 7.94064C0.338 7.98064 0.418667 7.99998 0.5 7.99998C0.596666 7.99998 0.693333 7.97198 0.776666 7.91664L2.44933 6.80531C2.58 6.71598 2.742 6.66664 2.90667 6.66664H6.83333C7.362 6.66664 7.83533 6.43864 8.17066 6.07931C7.47866 5.71731 7 4.99998 7 4.16665Z" fill="#7C788A"/>
<path d="M15.5 6.66666C15.4027 6.66666 15.3067 6.63866 15.2227 6.58266L13.5587 5.47333C13.4213 5.38133 13.262 5.33333 13.0967 5.33333H9.16667C8.52333 5.33333 8 4.81 8 4.16667V1.16667C8 0.523333 8.52333 0 9.16667 0H14.8333C15.4767 0 16 0.523333 16 1.16667V6.16666C16 6.35066 15.8987 6.52066 15.736 6.60733C15.662 6.64733 15.5807 6.66666 15.5 6.66666Z" fill="#7C788A"/>
<path d="M3.66663 12C4.77119 12 5.66662 11.1046 5.66662 10C5.66662 8.89543 4.77119 8 3.66663 8C2.56206 8 1.66663 8.89543 1.66663 10C1.66663 11.1046 2.56206 12 3.66663 12Z" fill="#7C788A"/>
<path d="M12.3334 12C13.4379 12 14.3334 11.1046 14.3334 10C14.3334 8.89543 13.4379 8 12.3334 8C11.2288 8 10.3334 8.89543 10.3334 10C10.3334 11.1046 11.2288 12 12.3334 12Z" fill="#7C788A"/>
<path d="M5.5 12.6667H1.83333C0.822 12.6667 0 13.4887 0 14.5V15.5C0 15.776 0.224 16 0.5 16H6.83333C7.10933 16 7.33333 15.776 7.33333 15.5V14.5C7.33333 13.4887 6.51133 12.6667 5.5 12.6667Z" fill="#7C788A"/>
<path d="M14.1666 12.6667H10.5C9.48863 12.6667 8.66663 13.4887 8.66663 14.5V15.5C8.66663 15.776 8.89063 16 9.16663 16H15.5C15.776 16 16 15.776 16 15.5V14.5C16 13.4887 15.178 12.6667 14.1666 12.6667Z" fill="#7C788A"/>
</svg>
