<svg width="13" height="12" viewBox="0 0 13 12" fill="none" xmlns="http://www.w3.org/2000/svg">
<path d="M11.9135 4.73239L7.39225 0.755961C6.92486 0.344867 6.16425 0.344844 5.6968 0.755961C5.27661 1.1255 5.24042 1.6891 5.55072 2.09154L5.54443 2.11922C5.21846 3.55278 4.42488 4.85693 3.24943 5.89071L1.17565 7.71459C0.707114 8.12669 0.707034 8.79363 1.17565 9.20573L2.30593 10.1998C2.77445 10.6119 3.53282 10.6119 4.00138 10.1998L4.28397 9.95128L6.262 11.6909C6.73054 12.103 7.48885 12.1031 7.95742 11.6909C8.42487 11.2799 8.42487 10.6109 7.95742 10.1998L7.1097 9.45426L7.39228 9.20573C7.86082 8.79368 7.86087 8.12674 7.39228 7.71462L7.20025 7.5457C8.14492 6.96401 9.21777 6.55903 10.3635 6.35749L10.3954 6.35189C10.8631 6.62965 11.5025 6.585 11.9135 6.22348H11.9135C12.3809 5.81241 12.3809 5.1435 11.9135 4.73239ZM3.43624 9.70277C3.28008 9.84009 3.02724 9.84011 2.87107 9.70275L1.74079 8.70867C1.5846 8.57128 1.5846 8.349 1.74079 8.21163L3.7188 6.47196L5.41425 7.9631C5.22072 8.1333 3.63454 9.52835 3.43624 9.70277ZM7.39225 10.6968C7.54804 10.8339 7.54804 11.0568 7.39225 11.1939C7.23646 11.3309 6.9829 11.3309 6.82711 11.1939L4.84908 9.45422L5.41425 8.95718L7.39225 10.6968ZM5.97939 8.46014C6.09952 8.35448 6.27935 8.19265 6.56315 7.97946L6.82711 8.21163C6.9833 8.349 6.9833 8.57128 6.82711 8.70867L6.54453 8.9572L5.97939 8.46014ZM5.99636 7.48101L4.26691 5.95997C5.19373 5.01874 5.85744 3.90769 6.21254 2.70066L9.70225 5.76985C8.32984 6.08213 7.06658 6.66586 5.99636 7.48101ZM11.3483 5.72642C11.1921 5.86376 10.9393 5.86376 10.7831 5.72642L6.26194 1.75004C6.10576 1.61265 6.10576 1.39037 6.26194 1.253C6.41813 1.11563 6.67092 1.11563 6.82711 1.253L11.3483 5.22935C11.5041 5.36639 11.5041 5.58935 11.3483 5.72642Z" fill="#7C788A"/>
<path d="M4.00123 7.71451C3.8452 7.57726 3.59214 7.57726 3.43609 7.71451L2.87095 8.21155C2.71489 8.3488 2.71489 8.57134 2.87095 8.70859C3.02698 8.84584 3.28006 8.84584 3.43609 8.70859L4.00123 8.21155C4.15728 8.0743 4.15728 7.85176 4.00123 7.71451Z" fill="#7C788A"/>
<path d="M9.22775 0C9.00704 0 8.82812 0.157359 8.82812 0.351468V1.0544C8.82812 1.24851 9.00704 1.40587 9.22775 1.40587C9.44845 1.40587 9.62737 1.24851 9.62737 1.0544V0.351468C9.62737 0.157359 9.44845 0 9.22775 0Z" fill="#7C788A"/>
<path d="M12.4245 2.81165H11.6252C11.4045 2.81165 11.2256 2.969 11.2256 3.16311C11.2256 3.35722 11.4045 3.51458 11.6252 3.51458H12.4245C12.6452 3.51458 12.8241 3.35722 12.8241 3.16311C12.8241 2.969 12.6451 2.81165 12.4245 2.81165Z" fill="#7C788A"/>
<path d="M11.9082 0.805818C11.7522 0.668568 11.4991 0.668568 11.343 0.805818L10.5438 1.50875C10.3877 1.646 10.3877 1.86854 10.5438 2.00579C10.6998 2.14304 10.9529 2.14307 11.1089 2.00579L11.9082 1.30286C12.0642 1.16561 12.0642 0.943092 11.9082 0.805818Z" fill="#7C788A"/>
</svg>
