<svg width="18" height="28" viewBox="0 0 18 28" fill="none" xmlns="http://www.w3.org/2000/svg">
<path d="M16.9416 8.3376L6.99984 2.26217V1.16667C6.99984 0.522668 6.47717 0 5.83317 0C5.18917 0 4.6665 0.522668 4.6665 1.16667V2.91667V15.75V22.75C4.6665 23.394 5.18917 23.9167 5.83317 23.9167C6.47717 23.9167 6.99984 23.394 6.99984 22.75V16.4045L16.9416 10.3291C17.2887 10.1168 17.4999 9.73993 17.4999 9.33335C17.4999 8.92677 17.2887 8.54993 16.9416 8.3376ZM6.99984 13.6699V4.99684L14.0955 9.33335L6.99984 13.6699Z" fill="#7C788A"/>
<path d="M10.3705 21.3185C9.88052 20.8979 9.14377 20.9545 8.72493 21.4433C8.30493 21.9322 8.36093 22.6689 8.84977 23.0883C9.07027 23.2779 9.33335 23.5754 9.33335 23.9167C9.33335 24.7427 7.83651 25.6667 5.83334 25.6667C3.83017 25.6667 2.33334 24.7427 2.33334 23.9167C2.33334 23.5626 2.61392 23.2552 2.84959 23.0603C3.34601 22.6491 3.41542 21.9141 3.00417 21.4177C2.5935 20.9207 1.85734 20.8518 1.3615 21.2631C0.483584 21.9899 0 22.9326 0 23.9167C0 26.2062 2.56259 28 5.83334 28C9.1041 28 11.6667 26.2062 11.6667 23.9167C11.6667 22.9594 11.2064 22.0366 10.3705 21.3185Z" fill="#7C788A"/>
</svg>
