<svg width="17" height="20" viewBox="0 0 17 20" fill="none" xmlns="http://www.w3.org/2000/svg">
<path d="M8.09524 20C9.20833 20 10.119 19.0769 10.119 17.9487H6.07143C6.07143 18.4928 6.28465 19.0145 6.66419 19.3992C7.04373 19.7839 7.55849 20 8.09524 20ZM14.1667 13.8462V8.71795C14.1667 5.56923 12.5071 2.93333 9.61309 2.2359V1.53846C9.61309 0.68718 8.93512 0 8.09524 0C7.25536 0 6.57738 0.68718 6.57738 1.53846V2.2359C3.67321 2.93333 2.02381 5.55897 2.02381 8.71795V13.8462L0 15.8974V16.9231H16.1905V15.8974L14.1667 13.8462Z" fill="#D8D8D8"/>
</svg>
