<svg width="20" height="20" viewBox="0 0 20 20" fill="none" xmlns="http://www.w3.org/2000/svg">
<path d="M5.38462 8.07692C5.38462 7.84871 5.45229 7.62563 5.57908 7.43588C5.70586 7.24613 5.88607 7.09824 6.09691 7.01091C6.30774 6.92357 6.53974 6.90072 6.76357 6.94525C6.98739 6.98977 7.19299 7.09966 7.35436 7.26103C7.51573 7.4224 7.62562 7.62799 7.67014 7.85182C7.71466 8.07564 7.69181 8.30764 7.60448 8.51848C7.51715 8.72932 7.36926 8.90952 7.17951 9.03631C6.98976 9.1631 6.76667 9.23077 6.53846 9.23077C6.23245 9.23077 5.93896 9.1092 5.72257 8.89281C5.50618 8.67643 5.38462 8.38294 5.38462 8.07692ZM13.4615 9.23077C13.6897 9.23077 13.9128 9.1631 14.1026 9.03631C14.2923 8.90952 14.4402 8.72932 14.5276 8.51848C14.6149 8.30764 14.6377 8.07564 14.5932 7.85182C14.5487 7.62799 14.4388 7.4224 14.2774 7.26103C14.1161 7.09966 13.9105 6.98977 13.6866 6.94525C13.4628 6.90072 13.2308 6.92357 13.02 7.01091C12.8091 7.09824 12.6289 7.24613 12.5022 7.43588C12.3754 7.62563 12.3077 7.84871 12.3077 8.07692C12.3077 8.38294 12.4293 8.67643 12.6456 8.89281C12.862 9.1092 13.1555 9.23077 13.4615 9.23077ZM20 10C20 11.9778 19.4135 13.9112 18.3147 15.5557C17.2159 17.2002 15.6541 18.4819 13.8268 19.2388C11.9996 19.9957 9.98891 20.1937 8.0491 19.8078C6.10929 19.422 4.32746 18.4696 2.92894 17.0711C1.53041 15.6725 0.578004 13.8907 0.192152 11.9509C-0.1937 10.0111 0.00433284 8.00042 0.761209 6.17316C1.51809 4.3459 2.79981 2.78412 4.4443 1.6853C6.08879 0.58649 8.02219 0 10 0C12.6512 0.00300303 15.193 1.05754 17.0678 2.93225C18.9425 4.80696 19.997 7.34876 20 10ZM18.4615 10C18.4615 8.32646 17.9653 6.69051 17.0355 5.29902C16.1057 3.90753 14.7842 2.82299 13.2381 2.18256C11.6919 1.54212 9.99062 1.37456 8.34924 1.70105C6.70786 2.02754 5.20016 2.83342 4.01679 4.01679C2.83343 5.20016 2.02754 6.70786 1.70105 8.34923C1.37456 9.99061 1.54213 11.6919 2.18256 13.2381C2.823 14.7842 3.90753 16.1057 5.29902 17.0355C6.69052 17.9653 8.32647 18.4615 10 18.4615C12.2434 18.459 14.3941 17.5667 15.9804 15.9804C17.5667 14.3941 18.459 12.2434 18.4615 10ZM14.3831 11.6414C14.2065 11.5393 13.9965 11.5115 13.7995 11.5642C13.6024 11.6168 13.4343 11.7456 13.3321 11.9222C12.9123 12.6474 12.2682 13.2166 11.4968 13.5438C10.7918 13.8421 10.0138 13.9229 9.26253 13.776C8.51127 13.629 7.82102 13.2611 7.28029 12.7192C7.04237 12.4813 6.83653 12.2134 6.66798 11.9222C6.56582 11.7456 6.3977 11.6168 6.20058 11.5642C6.00347 11.5116 5.79352 11.5394 5.61693 11.6415C5.44033 11.7437 5.31155 11.9118 5.25891 12.1089C5.20627 12.306 5.23409 12.516 5.33625 12.6926C5.80934 13.5107 6.48931 14.19 7.30792 14.6623C8.12653 15.1345 9.05497 15.3831 10 15.3831C10.9451 15.3831 11.8735 15.1345 12.6921 14.6622C13.5107 14.1899 14.1907 13.5106 14.6638 12.6925C14.7659 12.5159 14.7937 12.306 14.7411 12.1089C14.6884 11.9118 14.5597 11.7437 14.3831 11.6415V11.6414Z" fill="#B3B0BC"/>
</svg>
